<svg width="21" height="26" fill="none" xmlns="http://www.w3.org/2000/svg"><path d="M5.23 7.037c-1.43 0-2.144.715-2.144 1.43s.715 1.43 1.43 1.43c-1.43 0-2.145.714-2.145 1.43 0 .714.715 1.429 1.43 1.429-1.43 0-2.145.715-2.145 1.43 0 .714.719 1.425 1.434 1.425-1.43 0-2.145.711-2.145 1.426s.715 1.43 1.43 1.43H8.09c-.356 1.43-.715 2.855-.715 3.57 0 1.43.715 2.856 1.07 3.215.008.008.356.355 1.07.355 1.07 0 1.07-1.07 1.07-1.07 0-.02.356-1.785.356-2.5 0-.715 1.43-3.57 2.145-4.285l.715-.355v-10l-.715-.356H5.23v-.004zm9.93-.644l-.644 1.359v9.285l.714.715h5.618c.058-.469.097-.945.097-1.43 0-4.254-2.332-7.96-5.785-9.93z" fill="#767676"/></svg>