<svg xmlns="http://www.w3.org/2000/svg" xmlns:xlink="http://www.w3.org/1999/xlink" width="213" height="69" viewBox="0 0 213 69"><defs><path id="6604a" d="M0 1.29h28.78V69H0z"/><path id="6604c" d="M15.85 34.86v.82h3.2v20.84c0 6.52-1.56 11.47-4.45 11.47-5.98 0-7.3-22.43-7.3-33.12 0-8.25 1.8-32.89 7.12-32.89 6.94 0 8.72 20.1 9.38 22.69l.32-.02-.95-22.85h-.35c-.1.54-.22 1.26-.46 1.81-.8 1.84-2.68 1.51-3.67.08-1.36-1.96-2.55-2.4-4.25-2.4C4.32 1.29 0 23.04 0 34.88 0 49.16 3.73 68.97 14.45 69c3.24.01 5.74-4.82 8.07-4.82 2.1 0 2.17 2.8 2.64 4.16h.37V35.67h3.25v-.82z"/><path id="6604d" d="M162.82 67.2V1.8H160V1h12v.8h-2.83l.02 65.4H172v.8h-12v-.8h2.82V1.8z"/><path id="6604e" d="M44.4 1h13.62c6.53 0 10.76 7.44 10.76 16.37 0 8.9-3.56 17.2-9.05 17.2-.73 0-.67.45 0 .45 3.3 0 5.76 3.86 6.26 4.88 2.01 4.15.62 23.24 2.64 25.13 1.7 1.6 2.94-.9 3.16-1.28l.21.15c-.03.18-1.49 5.1-5.16 5.1-3.05 0-4.6-3.84-5.03-6.25-.72-3.92-.48-15.92-.87-18.33-.34-2.1-1.26-8.38-4.14-8.93a12.38 12.38 0 0 0-3.13-.23v32.17h2.88v.82H44v-.82h3.22V1.8h-2.83zM54 2.01V34c1.36 0 3.62.14 5.96-2.82C62.14 28.43 63 21.5 63 16.32 63 10.8 60.18 2 56.57 2z"/><path id="6604f" d="M85.8 67.2L98.07 1l11.35 66.2H112v.8h-11.8v-.81h2.58l-3.21-18.46h-9.4L86.83 67.2h3.32v.8H83v-.79zm4.54-19.31h9.11l-4.39-25.85z"/><path id="6604g" d="M185.8 67.2L198.07 1l11.35 66.2H212v.8h-11.8v-.81h2.58l-3.21-18.46h-9.4l-3.34 18.47h3.32v.8H183v-.79zm4.54-19.31h9.11l-4.39-25.85z"/><path id="6604h" d="M128.79 67.19h7.59c3.56-.15 7.92-3.57 7.92-13.1l.02-5.62h.68V68L122 68l15.61-66.2h-7.28c-4.6 0-7.14 7.16-7.14 13.75 0 1.7-.05 4.96-.05 4.96l-.65.01V1h22.35z"/><clipPath id="6604b"><use xlink:href="#6604a"/></clipPath></defs><g><g><g><g/><g clip-path="url(#6604b)"><use fill="#1d1b19" xlink:href="#6604c"/></g></g><g><g/></g><g><use fill="#1d1b19" xlink:href="#6604d"/></g><g><use fill="#1d1b19" xlink:href="#6604e"/></g><g><use fill="#1d1b19" xlink:href="#6604f"/></g><g><use fill="#1d1b19" xlink:href="#6604g"/></g><g><use fill="#1d1b19" xlink:href="#6604h"/></g></g></g></svg>