<svg width="21" height="26" fill="none" xmlns="http://www.w3.org/2000/svg"><path d="M16.66 18.963c1.43 0 2.145-.715 2.145-1.43s-.715-1.43-1.43-1.43c1.43 0 2.145-.714 2.145-1.43 0-.714-.715-1.429-1.43-1.429 1.43 0 2.144-.715 2.144-1.43 0-.714-.718-1.425-1.433-1.425 1.43 0 2.144-.711 2.144-1.426s-.715-1.43-1.43-1.43h-5.714c.355-1.43.715-2.855.715-3.57 0-1.43-.715-2.856-1.07-3.215-.008-.008-.356-.355-1.071-.355-1.07 0-1.07 1.07-1.07 1.07 0 .02-.356 1.785-.356 2.5 0 .715-1.43 3.57-2.144 4.285l-.715.356v10l.715.355h7.855v.004zm-9.93.644l.645-1.359V8.963l-.715-.715H1.043a11.51 11.51 0 00-.098 1.43c0 4.254 2.332 7.96 5.785 9.93z" fill="#767676"/></svg>