<svg width="45" height="45" fill="none" xmlns="http://www.w3.org/2000/svg"><rect x=".377" width="44.041" height="44.041" rx="22.021" fill="#c7c7c7"/><path d="M12.35 18.331c0-1.129.198-2.195.587-3.19a8.172 8.172 0 011.627-2.616c.701-.75 1.504-1.4 2.385-1.928.904-.547 1.883-.96 2.905-1.225 1.035-.272 2.101-.409 3.171-.408 1.653 0 3.191.35 4.617 1.046a8.737 8.737 0 013.47 3.04c.891 1.327 1.334 2.829 1.334 4.503 0 1.005-.099 1.987-.3 2.947a12.01 12.01 0 01-.938 2.776 9.579 9.579 0 01-1.57 2.347 6.854 6.854 0 01-2.276 1.616 7.201 7.201 0 01-2.967.606c-.71 0-1.418-.167-2.117-.502-.7-.334-1.202-.793-1.504-1.38-.106.407-.25.996-.444 1.767-.185.769-.31 1.265-.365 1.49a32.23 32.23 0 01-.323 1.113 7.512 7.512 0 01-.407 1.116l-.5.978c-.215.42-.457.826-.722 1.216-.263.38-.588.835-.975 1.357l-.216.077-.144-.157c-.155-1.644-.235-2.628-.235-2.953 0-.962.114-2.041.34-3.24.223-1.197.574-2.702 1.046-4.512.471-1.808.741-2.871.814-3.186-.333-.678-.5-1.563-.5-2.651 0-.87.27-1.684.815-2.45.545-.763 1.235-1.145 2.07-1.145.64 0 1.137.212 1.492.637.357.424.531.958.531 1.61 0 .69-.23 1.69-.69 2.997-.462 1.31-.691 2.286-.691 2.935 0 .657.235 1.207.705 1.638a2.438 2.438 0 001.71.651 3.36 3.36 0 001.603-.393 3.57 3.57 0 001.232-1.064 8.884 8.884 0 001.476-3.228c.139-.613.246-1.194.313-1.741.071-.55.102-1.07.102-1.563 0-1.81-.575-3.22-1.717-4.23-1.148-1.01-2.643-1.512-4.481-1.512-2.091 0-3.84.676-5.24 2.033-1.402 1.352-2.107 3.072-2.107 5.157 0 .46.07.904.202 1.333.129.428.27.77.422 1.022.15.248.293.49.422.714.13.223.199.383.199.479 0 .293-.077.675-.232 1.146-.161.472-.351.707-.58.707-.022 0-.112-.016-.27-.05a3.206 3.206 0 01-1.42-.877 4.6 4.6 0 01-.956-1.483c-.22-.55-.39-1.117-.51-1.697a7.086 7.086 0 01-.192-1.673z" fill="#fff"/></svg>