<svg width="45" height="45" fill="none" xmlns="http://www.w3.org/2000/svg"><rect x=".918" width="44.041" height="44.041" rx="22.021" fill="#c7c7c7"/><path d="M18.19 32.4c9.641 0 14.915-7.989 14.915-14.904 0-.224 0-.45-.01-.674a10.673 10.673 0 002.618-2.717 10.63 10.63 0 01-3.017.827 5.27 5.27 0 002.311-2.902 10.434 10.434 0 01-3.332 1.267 5.247 5.247 0 00-8.936 4.78 14.889 14.889 0 01-10.805-5.475 5.252 5.252 0 001.626 6.997 5.307 5.307 0 01-2.373-.652v.072a5.25 5.25 0 004.203 5.139c-.45.123-.915.185-1.382.183a5.151 5.151 0 01-.98-.09 5.242 5.242 0 004.897 3.635 10.52 10.52 0 01-6.514 2.247c-.417.001-.833-.023-1.246-.072A14.922 14.922 0 0018.19 32.4z" fill="#fff"/></svg>