<svg width="45" height="45" fill="none" xmlns="http://www.w3.org/2000/svg"><rect x=".459" width="44.041" height="44.041" rx="22.021" fill="#c7c7c7"/><path d="M25.851 20.617c.094.495.16.99.16 1.63 0 5.602-3.756 9.572-9.41 9.572a9.795 9.795 0 01-9.798-9.798 9.795 9.795 0 019.798-9.799c2.647 0 4.852.963 6.563 2.567l-2.66 2.553c-.722-.695-1.992-1.51-3.903-1.51-3.342 0-6.069 2.767-6.069 6.189s2.727 6.189 6.069 6.189c3.876 0 5.334-2.794 5.56-4.225h-5.56v-3.368h9.25zm9.462.328v-2.844h-2.858v2.845h-2.844v2.857h2.844v2.845h2.858v-2.845h2.844v-2.858h-2.844z" fill="#fff"/></svg>